<?xml version="1.0" encoding="utf-8"?><svg xml:space="preserve" viewBox="0 0 100 100" y="0" x="0" xmlns="http://www.w3.org/2000/svg" id="圖層_1" version="1.1" width="200px" height="200px" xmlns:xlink="http://www.w3.org/1999/xlink" style="width:100%;height:100%;background-size:initial;background-repeat-y:initial;background-repeat-x:initial;background-position-y:initial;background-position-x:initial;background-origin:initial;background-image:initial;background-color:rgb(255, 255, 255);background-clip:initial;background-attachment:initial;animation-play-state:paused" ><g class="ldl-scale" style="transform-origin:50% 50%;transform:rotate(0deg) scale(0.8, 0.8);animation-play-state:paused" ><g style="animation-play-state:paused" ><path stroke-miterlimit="10" stroke-linecap="round" stroke-width="2.935" stroke="#333" fill="#e0e0e0" d="M28.977 19.368h56.187A4.836 4.836 0 0 1 90 24.204v36.5a4.836 4.836 0 0 1-4.836 4.836H28.977a4.836 4.836 0 0 1-4.836-4.836v-36.5a4.837 4.837 0 0 1 4.836-4.836z" style="stroke:rgb(51, 51, 51);fill:rgb(224, 224, 224);animation-play-state:paused" ></path>
<path d="M24.142 28.702H90v10.47H24.142z" stroke-miterlimit="10" stroke-linecap="round" stroke-width="2.935" stroke="#333" fill="#666" style="stroke:rgb(51, 51, 51);fill:rgb(102, 102, 102);animation-play-state:paused" ></path></g>
<g style="animation-play-state:paused" ><path stroke-miterlimit="10" stroke-linecap="round" stroke-width="2.935" stroke="#333" fill="#e0e0e0" d="M14.836 34.46h56.187a4.836 4.836 0 0 1 4.836 4.836v36.5a4.836 4.836 0 0 1-4.836 4.836H14.836A4.836 4.836 0 0 1 10 75.796v-36.5a4.836 4.836 0 0 1 4.836-4.836z" style="stroke:rgb(51, 51, 51);fill:rgb(224, 224, 224);animation-play-state:paused" ></path>
<path d="M10 43.793h65.858v10.47H10z" stroke-miterlimit="10" stroke-linecap="round" stroke-width="2.935" stroke="#333" fill="#666" style="stroke:rgb(51, 51, 51);fill:rgb(102, 102, 102);animation-play-state:paused" ></path></g>
<metadata xmlns:d="https://loading.io/stock/" style="animation-play-state:paused" ><d:name style="animation-play-state:paused" >credit card</d:name>
<d:tags style="animation-play-state:paused" >credit card,debit card,cash card,atm,pre-paid card,pay,charge,spend</d:tags>
<d:license style="animation-play-state:paused" >by</d:license>
<d:slug style="animation-play-state:paused" >gk4t3o</d:slug></metadata></g><!-- generated by https://loading.io/ --></svg>